<svg viewBox="0 0 100 100" fill="none" xmlns="http://www.w3.org/2000/svg">
<path d="M50 100.002C77.6142 100.002 100 77.6162 100 50.002C100 22.3878 77.6142 0.0019989 50 0.0019989C22.3858 0.0019989 0 22.3878 0 50.002C0 77.6162 22.3858 100.002 50 100.002Z" fill="#F8F6D8"/>
<path d="M97.691 57.066C91.13 53.367 86.923 51.515 85.074 51.515C83.73 51.515 82.679 52.547 81.92 54.607C81.162 56.67 79.65 57.697 77.379 57.697C76.453 57.697 74.561 57.361 71.701 56.689C70.103 59.129 69.303 60.685 69.303 61.357C69.303 62.283 69.992 63.373 71.367 64.638C72.742 65.9 73.902 66.529 74.849 66.529C75.451 66.529 76.265 66.404 77.298 66.15C78.329 65.9 79.019 65.773 79.362 65.773C80.395 65.773 80.909 67.666 80.909 71.451C80.909 75.068 80.069 80.619 78.386 88.105C76.198 79.525 73.886 75.234 71.448 75.234C71.11 75.234 70.417 75.486 69.366 75.994C68.313 76.496 67.536 76.748 67.032 76.748C64.594 76.748 62.407 74.521 60.471 70.06C56.602 70.65 54.666 72.627 54.666 75.994C54.666 77.678 55.443 79.021 57.002 80.029C58.555 81.037 59.336 81.756 59.336 82.174C59.336 84.447 56.012 87.938 49.367 92.647C45.836 95.17 43.394 96.936 42.051 97.944C43.225 96.432 44.403 94.457 45.584 92.016C46.928 89.241 47.602 87.096 47.602 85.58C47.602 84.74 46.635 83.56 44.7 82.047C42.764 80.535 41.8 78.936 41.8 77.254C41.8 75.826 42.302 74.061 43.312 71.955C42.218 70.693 40.917 70.06 39.402 70.06C36.037 70.06 34.357 71.156 34.357 73.34C34.357 71.826 34.357 72.961 34.357 76.746C34.439 79.522 32.337 80.91 28.046 80.91C24.767 80.91 19.255 80.151 11.519 78.639C20.267 76.451 24.64 73.928 24.64 71.069C24.64 71.405 24.472 70.397 24.136 68.041C23.798 65.437 25.65 63.08 29.687 60.978C28.929 57.111 26.914 55.172 23.63 55.172C23.126 55.172 22.198 56.056 20.855 57.819C19.509 59.59 18.248 60.471 17.072 60.471C15.052 60.471 12.443 58.285 9.25 53.908C7.734 51.724 5.42002 48.484 2.30902 44.193C4.24302 45.205 6.17801 46.213 8.11401 47.224C10.637 48.4 12.655 48.99 14.171 48.99C15.349 48.99 16.505 47.959 17.64 45.898C18.775 43.837 20.269 42.806 22.119 42.806C22.373 42.806 24.055 43.31 27.166 44.322C28.762 41.883 29.564 40.074 29.564 38.896C29.564 37.886 28.953 36.73 27.734 35.425C26.513 34.122 25.4 33.47 24.39 33.47C23.968 33.47 23.318 33.595 22.433 33.849C21.552 34.101 20.9 34.228 20.48 34.228C18.964 34.228 18.207 32.335 18.207 28.55C18.207 27.54 19.176 21.78 21.111 11.265C21.025 12.525 21.572 14.882 22.75 18.329C24.18 22.536 25.861 24.638 27.799 24.638C28.133 24.638 28.807 24.386 29.817 23.88C30.825 23.376 31.624 23.126 32.213 23.126C34.147 23.126 35.744 24.22 37.008 26.403L38.901 29.809C40.667 29.809 42.139 29.18 43.315 27.918C44.493 26.656 45.083 25.141 45.083 23.375C45.083 21.525 44.306 20.115 42.749 19.148C41.19 18.181 40.413 17.445 40.413 16.941C40.413 15.173 43.19 12.189 48.741 7.98299C53.198 4.61999 56.1 2.64299 57.448 2.05299C53.831 6.93199 52.022 10.504 52.022 12.777C52.022 13.955 52.735 15.218 54.167 16.562C55.933 18.16 56.942 19.296 57.194 19.968C58.034 21.906 57.95 24.554 56.942 27.917C59.213 29.517 60.936 30.313 62.116 30.313C64.552 30.313 65.774 29.049 65.774 26.528C65.774 26.276 65.669 25.477 65.46 24.132C65.247 22.788 65.187 22.03 65.269 21.861C65.605 20.683 67.919 20.093 72.208 20.093C74.899 20.093 80.491 20.851 88.989 22.366C87.137 22.87 84.362 23.626 80.663 24.636C77.298 25.646 75.614 26.781 75.614 28.042C75.614 28.632 75.823 29.64 76.245 31.069C76.665 32.501 76.878 33.549 76.878 34.225C76.878 35.401 76.12 36.495 74.607 37.502L70.316 40.533C71.326 42.385 71.998 43.478 72.336 43.812C73.176 44.82 74.311 45.326 75.742 45.326C76.752 45.326 77.676 44.443 78.517 42.678C79.357 40.91 80.705 40.028 82.554 40.028C84.824 40.028 87.392 42.132 90.251 46.339C91.844 48.699 94.326 52.272 97.691 57.066ZM69.684 49.75C69.684 44.369 67.705 39.699 63.752 35.744C59.799 31.791 55.131 29.814 49.748 29.814C44.279 29.814 39.568 31.771 35.617 35.683C31.664 39.593 29.644 44.283 29.562 49.749C29.476 55.132 31.474 59.779 35.554 63.687C39.634 67.599 44.365 69.556 49.747 69.556C55.466 69.556 60.239 67.683 64.065 63.941C67.895 60.201 69.766 55.471 69.684 49.75ZM67.791 49.75C67.791 54.881 66.066 59.131 62.617 62.49C59.166 65.857 54.877 67.539 49.748 67.539C44.785 67.539 40.537 65.816 37.006 62.365C33.475 58.92 31.707 54.713 31.707 49.75C31.707 44.873 33.492 40.686 37.066 37.197C40.644 33.707 44.869 31.959 49.748 31.959C54.625 31.959 58.852 33.725 62.428 37.26C66.002 40.793 67.791 44.955 67.791 49.75Z" fill="#0D0F0F"/>
</svg>
